<svg width="46" height="64" viewBox="0 0 46 64" fill="none" xmlns="http://www.w3.org/2000/svg">
<path fill-rule="evenodd" clip-rule="evenodd" d="M32.6829 4.90735V10.5582H40.2112V44.0546C40.2112 47.0845 38.7056 48.553 37.3858 49.3151L23.2772 57.4755L9.16854 49.3337C7.88594 48.5716 6.34309 47.1031 6.34309 44.0732V10.5582H13.8714V4.90735H0.673615V44.0546C0.524908 48.2184 2.71835 52.1406 6.32451 54.2039L23.2772 64L40.2112 54.2039C43.8174 52.1406 45.9923 48.2184 45.8621 44.0546V4.90735H32.6829Z" fill="white"/>
<path fill-rule="evenodd" clip-rule="evenodd" d="M23.2773 38.2179L13.8901 32.7715V39.3704L23.2773 44.8168L32.6831 39.3704V32.7715L23.2773 38.2179Z" fill="white"/>
<path fill-rule="evenodd" clip-rule="evenodd" d="M23.2769 25.4105L13.8525 19.9827V26.5816L23.2769 32.028L32.6826 26.5816V19.9827L23.2769 25.4105Z" fill="white"/>
<path d="M25.247 9.81463C25.3213 9.33133 25.5444 8.04873 25.7675 6.69177C25.6002 7.73273 25.4143 8.77368 25.247 9.81463C25.2098 10.0191 25.1912 10.2422 25.0983 10.4281C25.0797 10.4652 25.0611 10.521 25.0239 10.5582C25.0611 10.521 25.0797 10.4652 25.0983 10.4281C25.1912 10.2236 25.2098 10.0005 25.247 9.81463Z" fill="white"/>
<path d="M25.005 10.5955C24.9864 10.614 24.9678 10.6512 24.9492 10.6698C24.9678 10.6512 24.9864 10.614 25.005 10.5955Z" fill="white"/>
<path d="M24.8379 10.7626C24.8751 10.744 24.8937 10.7068 24.9308 10.6882C24.8937 10.7254 24.8565 10.744 24.8379 10.7626Z" fill="white"/>
<path d="M28.7974 10.4281C28.1654 9.18266 27.2732 8.10454 26.2694 7.13794C26.0649 8.34618 25.879 9.46149 25.8047 9.90761V9.9262V9.94479C25.7861 10.0006 25.7861 10.0563 25.7861 10.1121C25.7675 10.2794 25.7303 10.4653 25.6374 10.6697C25.4887 11.0043 25.2284 11.246 24.9496 11.3761C24.7451 11.469 24.5221 11.5062 24.2804 11.5062C24.2432 11.5062 24.2061 11.5062 24.1875 11.5062H21.4364H20.7486L20.8787 10.837C21.1576 9.42431 21.7896 6.30146 22.1799 4.36826C21.362 4.03367 20.507 3.79202 19.6147 3.75484C19.4288 3.73625 19.243 3.77343 19.0571 3.77343C18.518 3.82919 17.9604 4.03367 17.57 4.42402C17.2912 4.68426 17.1053 5.05603 17.0123 5.44639C16.938 5.76239 16.9194 6.09698 16.9566 6.43157C17.0123 7.13794 17.2726 7.80712 17.57 8.43913C18.2206 9.79608 19.2058 10.9672 20.3025 11.9709C21.5479 13.1234 23.0164 14.0714 24.5964 14.6663C25.2656 14.9079 25.9534 15.131 26.6597 15.1681C27.3475 15.2239 28.0539 15.0938 28.6301 14.6848C28.7974 14.5733 28.9647 14.4432 29.0762 14.2573C29.2993 13.9227 29.4294 13.551 29.4666 13.1606C29.5038 12.7516 29.448 12.3241 29.3551 11.9152C29.2435 11.3947 29.0391 10.8928 28.7974 10.4281Z" fill="white"/>
<path d="M30.1544 0C30.1544 0 29.8942 1.39413 29.7641 2.08191C29.7083 2.34214 29.5596 2.58379 29.3179 2.71391C29.1507 2.80686 28.9276 2.82544 28.7417 2.82544C27.961 2.82544 27.1989 2.82544 26.4181 2.82544C26.1951 4.10805 25.3958 8.75516 25.2285 9.79611C25.1913 10.0006 25.1727 10.2051 25.0984 10.4095C25.0054 10.5954 24.8753 10.7627 24.6894 10.8371C24.5221 10.9114 24.3362 10.93 24.1504 10.93C23.2209 10.93 22.3101 10.93 21.3807 10.93C21.8082 8.81092 23.0165 2.84403 23.0165 2.84403H19.5962C19.5962 2.84403 19.8564 1.43131 20.0051 0.743538C20.0609 0.520477 20.1724 0.316004 20.3583 0.185884C20.5256 0.0743538 20.7301 0 20.9346 0.0185884C21.771 0 30.1544 0 30.1544 0Z" fill="white"/>
</svg>
