<svg width="327" height="18" viewBox="0 0 327 18" fill="none" xmlns="http://www.w3.org/2000/svg">
<path d="M160.5 0H153.75C152.509 0 151.5 1.00927 151.5 2.25V9C151.5 10.2407 152.509 11.25 153.75 11.25H156.777L155.639 17.1068C155.596 17.3269 155.654 17.5543 155.796 17.7272C155.939 17.9 156.151 18 156.375 18H158.805C159.457 18 160.037 17.5734 160.234 16.9556L162.417 11.7766C162.43 11.747 162.441 11.7166 162.449 11.6858C162.649 10.9673 162.75 10.2242 162.75 9.47754V2.25C162.75 1.00927 161.741 0 160.5 0Z" fill="#03502F"/>
<path d="M173.25 0H166.5C165.259 0 164.25 1.00927 164.25 2.25V9C164.25 10.2407 165.259 11.25 166.5 11.25H169.528L168.389 17.1068C168.346 17.3269 168.404 17.5543 168.546 17.7272C168.688 17.9 168.901 18 169.125 18H171.555C172.208 18 172.787 17.5734 172.984 16.9552L175.167 11.7766C175.18 11.7469 175.19 11.7165 175.199 11.6858C175.399 10.9666 175.5 10.2235 175.5 9.47754V2.25C175.5 1.00927 174.491 0 173.25 0Z" fill="#03502F"/>
<line x1="192" y1="8.5" x2="327" y2="8.50001" stroke="#E5E5EA"/>
<line x1="4.37114e-08" y1="8.5" x2="135" y2="8.50001" stroke="#E5E5EA"/>
</svg>
