<svg width="16" height="16" viewBox="0 0 16 16" fill="none" xmlns="http://www.w3.org/2000/svg">
<path d="M8.16233 1.33337C5.4997 1.33337 3.3335 3.49957 3.3335 6.16218C3.3335 9.46656 7.65483 14.3176 7.83881 14.5225C8.01163 14.715 8.31335 14.7146 8.48585 14.5225C8.66983 14.3176 12.9912 9.46656 12.9912 6.16218C12.9911 3.49957 10.8249 1.33337 8.16233 1.33337ZM8.16233 8.59169C6.82269 8.59169 5.73285 7.50182 5.73285 6.16218C5.73285 4.82254 6.82272 3.7327 8.16233 3.7327C9.50194 3.7327 10.5918 4.82257 10.5918 6.16221C10.5918 7.50185 9.50194 8.59169 8.16233 8.59169Z" fill="#03502F"/>
<path fill-rule="evenodd" clip-rule="evenodd" d="M8.20214 1.33337C5.14297 1.33337 2.6665 3.83798 2.6665 6.9319C2.6665 9.87849 7.25525 13.9301 7.76511 14.2984L8.20214 14.6667L8.56633 14.2984C9.14902 13.8564 13.6649 9.80483 13.6649 6.9319C13.7378 3.83798 11.2613 1.33337 8.20214 1.33337ZM8.20214 4.72196C9.44037 4.72196 10.3873 5.6796 10.3873 6.9319C10.3873 8.11054 9.44037 9.14185 8.20214 9.14185C6.9639 9.14185 6.01702 8.11054 6.01702 6.9319C6.01702 5.75326 6.9639 4.72196 8.20214 4.72196Z" fill="#03502F"/>
</svg>
