<svg width="61" height="20" viewBox="0 0 61 20" fill="none" xmlns="http://www.w3.org/2000/svg">
<g clip-path="url(#clip0_5098_9915)">
<path d="M57.2378 0.113647H60.3598V18.8638H57.2387L57.2378 0.113647ZM49.7132 6.07765C46.0131 6.07765 43.1415 9.05882 43.1415 12.6815C43.1415 16.3034 46.0131 19.1759 49.7132 19.1759C51.8215 19.1759 53.6942 18.3952 54.9122 16.7251L52.7891 14.8672C52.1179 15.7409 51.1651 16.3191 49.7132 16.3191C48.0901 16.3191 46.7156 15.288 46.2626 13.7431H55.5216C55.5685 13.3371 55.5998 12.9467 55.5998 12.5094C55.5998 9.07529 53.2734 6.07765 49.7132 6.07765ZM46.3104 11.2914C46.7634 9.82388 47.9805 8.79365 49.7132 8.79365C51.3842 8.79365 52.4614 9.94906 52.617 11.2914H46.3104ZM39.4405 2.09588H36.3185V18.8794H39.4405V9.12141H42.4695V6.37412H39.4405V2.09588ZM34.9136 6.37412H31.2135L28.2784 10.1516L25.4372 6.37412H21.6902L26.2797 12.3529L21.2842 18.8794H25.0312L28.1532 14.6959L31.2291 18.8794H34.9918L30.0894 12.4155L34.9136 6.37412Z" fill="#737375"/>
<path d="M15.4298 6.07763C11.8228 6.07763 8.82593 8.99704 8.82593 12.6346C8.82593 16.2564 11.8236 19.1915 15.4298 19.1915C19.0369 19.1915 22.0337 16.2721 22.0337 12.6346C22.0337 8.99704 19.036 6.07763 15.4298 6.07763ZM15.4298 16.3503C13.4006 16.3503 11.8228 14.7263 11.8228 12.6189C11.8228 10.5107 13.4006 8.88751 15.4298 8.88751C17.459 8.88751 19.0369 10.5115 19.0369 12.6181C19.0369 14.7263 17.459 16.3503 15.4298 16.3503ZM5.36052 5.04657C5.36052 3.56421 5.82828 2.87657 7.15581 2.87657H8.90417V0.129272H6.92111C4.17464 0.129272 2.22287 1.36292 2.22287 5.06221V6.39057H0.020752V9.13786H2.22287V18.8959H5.34569V9.13704H8.37381V6.39057H5.34487V5.04821L5.36052 5.04657Z" fill="#737375"/>
</g>
<defs>
<clipPath id="clip0_5098_9915">
<rect width="60" height="20" fill="white" transform="translate(0.45459)"/>
</clipPath>
</defs>
</svg>
