<svg width="49" height="26" viewBox="0 0 49 26" fill="none" xmlns="http://www.w3.org/2000/svg">
<g clip-path="url(#clip0_5098_9913)">
<path d="M7.20842 10.7915L10.7256 18.3682H12.7035L8.45259 9.23627L7.20842 10.7915ZM8.24523 18.3682H10.255L6.89738 11.1663L5.59738 12.7534L8.24523 18.3682ZM2.61456 18.3682H4.41701L5.21455 12.6258L15.144 0.391479H12.9667L3.52376 11.9559L2.61456 18.3682ZM12.4004 0.391479H10.4225L6.18756 5.63136L6.9213 0.391479H5.15075L3.64339 11.1663L12.4004 0.391479ZM2.9575 0.391479L0.461182 18.3682H2.24768L4.75995 0.391479H2.9575ZM29.8747 14.8111C28.8538 14.8111 28.6385 13.9179 28.7262 13.4952L30.0741 4.29148H28.2716L26.9876 13.5909C26.8121 15.6964 28.2716 16.9645 30.6882 16.4301L30.9992 14.3406C30.9992 14.3406 30.3931 14.8111 29.8747 14.8111ZM28.8698 16.9087C28.4949 16.8449 26.3735 16.3264 26.5808 13.551L27.8489 4.29946H26.1103L24.7784 13.3516C24.2919 16.9725 26.8041 18.9982 30.3931 18.5436L30.6164 16.8688C30.0581 16.9725 29.452 16.9725 28.8698 16.9087ZM32.355 20.1068L34.644 4.2835H32.7777L30.4409 20.7209C30.3133 21.5823 29.3563 22.3559 28.463 22.1326L28.2158 23.9191C31.0949 24.1743 32.0839 21.9172 32.355 20.1068ZM36.7415 4.2835H35.0667L32.7937 19.9234C32.5305 21.8534 31.6452 24.6608 28.1679 24.3179L27.9446 25.9528C32.9293 26.1283 34.1894 22.6271 34.4047 20.8565L36.7415 4.2835ZM16.444 13.6467L17.0262 9.37982C17.3851 7.79271 19.052 7.57737 19.5704 8.27921L19.8336 6.397C19.4428 6.26939 19.0201 6.22154 18.6133 6.22154C17.2655 6.22154 15.6146 7.33811 15.3992 8.91725L14.7373 13.7663C14.6096 15.0265 15.3833 16.3025 17.1698 16.4381C17.6244 16.47 18.063 16.3903 18.4857 16.2307L18.733 14.4442C17.1857 15.5927 16.3244 14.2608 16.444 13.6467ZM14.3465 13.7743L15.0084 8.94117C15.4152 6.4608 18.0072 5.38412 19.8894 6.0062L20.1127 4.37123C15.4231 3.72522 13.525 7.3062 13.3176 8.9332L12.6557 13.7025C12.4642 15.178 13.0784 19.0062 18.1747 18.424L18.4219 16.6694C16.4759 17.3154 14.0753 16.1271 14.3465 13.7743ZM22.3937 4.29946H20.6072L18.6771 18.3682H20.4158L22.3937 4.29946ZM24.4753 4.29946H22.8004L20.8225 18.3682H22.5452L24.4753 4.29946ZM43.5845 3.89271C39.3176 3.89271 37.7943 7.31418 37.579 9.02093L36.917 13.9577C36.7096 15.4811 37.4195 18.8547 41.6385 18.8547C44.8047 18.8547 47.1894 16.797 47.6121 13.7105L48.2581 9.05283C48.5373 7.15467 47.7557 3.89271 43.5845 3.89271ZM45.7937 14.0534C45.7458 14.3485 45.1636 17.2676 41.7661 17.2676C39.0704 17.2676 38.536 14.8988 38.6477 13.8461C38.6955 13.4393 39.3256 8.79762 39.4133 8.40682C39.525 7.85651 40.482 5.5197 43.1777 5.5197C46.6949 5.5197 46.5514 8.63811 46.4876 9.14056C46.4557 9.45958 45.8415 13.7903 45.7937 14.0534ZM43.1777 5.87062C40.6974 5.87062 39.8679 8.06387 39.7563 8.48657C39.6606 8.86142 39.0225 13.551 38.9906 13.9737C38.9268 14.851 39.3655 16.9087 41.8139 16.9087C44.2305 16.9087 45.2833 15.0743 45.4348 14.0056C45.4667 13.7424 46.0968 9.44363 46.1287 9.10866C46.1685 8.75774 46.3759 5.87062 43.1777 5.87062ZM42.0133 15.1541C41.0882 15.1541 40.7133 14.3406 40.7931 13.6945L41.4231 9.13258C41.5507 8.30314 42.3802 7.56142 43.1777 7.56142C43.8397 7.54547 44.4139 8.07982 44.4139 8.76571C44.4139 8.84547 44.4139 8.92522 44.398 9.01295L43.7679 13.6068C43.6483 14.4044 42.8268 15.1541 42.0133 15.1541Z" fill="#737375"/>
</g>
<defs>
<clipPath id="clip0_5098_9913">
<rect width="48.4545" height="26" fill="white"/>
</clipPath>
</defs>
</svg>
