<svg width="44" height="20" viewBox="0 0 44 20" fill="none" xmlns="http://www.w3.org/2000/svg">
<g clip-path="url(#clip0_5098_9921)">
<path d="M2.97771 0.00289726C2.29993 0.0544763 1.71364 0.312371 1.25742 0.759182C1.05515 0.957419 0.905772 1.15752 0.771958 1.4092C0.379851 2.14684 0.348732 3.08272 0.69167 3.85827C0.893947 4.31565 1.23875 4.72082 1.65513 4.99052C2.01674 5.2248 2.39951 5.3609 2.85635 5.4162C2.98767 5.43174 3.36173 5.43174 3.49741 5.4162C3.90943 5.36773 4.27913 5.24469 4.6146 5.04334C5.08513 4.76121 5.45794 4.33491 5.67391 3.83031C5.97391 3.13119 5.97391 2.29847 5.67454 1.59936C5.35276 0.850533 4.69987 0.293107 3.90383 0.0892768C3.65612 0.025269 3.49305 0.0047617 3.21422 0.00227594C3.10157 0.00165462 2.99514 0.00165462 2.97771 0.00289726Z" fill="#737375"/>
<path d="M10.7357 0.00600481C10.3654 0.0383191 10.0386 0.128427 9.72121 0.28565C9.27309 0.508744 8.91646 0.833754 8.65194 1.26068C8.59468 1.35265 8.4839 1.57202 8.44904 1.66337C8.35569 1.90262 8.29718 2.13939 8.26668 2.40101C8.25797 2.4731 8.2561 2.54394 8.2561 2.71483C8.2561 2.88573 8.25797 2.95657 8.26668 3.02866C8.29718 3.29028 8.35569 3.52705 8.44904 3.7663C8.4839 3.85765 8.59468 4.07702 8.65194 4.16899C8.91646 4.59591 9.27309 4.92092 9.72121 5.14402C10.0125 5.28881 10.3112 5.37581 10.6517 5.4162C10.7855 5.43174 11.1664 5.43174 11.2959 5.4162C11.7346 5.36276 12.1087 5.23412 12.4535 5.01787C12.7267 4.84697 12.9707 4.62139 13.1661 4.35852C13.5359 3.862 13.7207 3.2387 13.6914 2.58558C13.6778 2.28356 13.6249 2.01261 13.5271 1.74167C13.3267 1.19108 12.9471 0.720032 12.4535 0.411801C12.1093 0.196163 11.734 0.066905 11.299 0.0140834C11.2031 0.00227594 10.8365 -0.00269556 10.7357 0.00600481Z" fill="#737375"/>
<path d="M18.5687 0.00351906C18.0198 0.0383191 17.4795 0.242149 17.0613 0.572131C16.9418 0.666588 16.7893 0.811382 16.6941 0.921998C16.6001 1.03075 16.485 1.19419 16.4078 1.32904C15.9839 2.06544 15.9304 3.01871 16.2671 3.81726C16.475 4.31005 16.8366 4.73449 17.2897 5.01787C17.6351 5.23412 18.0086 5.36276 18.4474 5.4162C18.5768 5.43174 18.9577 5.43174 19.0915 5.4162C19.432 5.37581 19.7307 5.28881 20.022 5.14402C20.5392 4.88674 20.9444 4.48343 21.2033 3.9664C21.4461 3.48292 21.5394 2.90934 21.4685 2.34508C21.3732 1.5888 20.9805 0.925105 20.3737 0.49383C20.2193 0.384458 19.9915 0.260792 19.8197 0.193677C19.5521 0.0892768 19.2851 0.0283761 18.9926 0.00538301C18.9204 -0.000209808 18.6465 -0.00145245 18.5687 0.00351906Z" fill="#737375"/>
<path d="M25.754 0.00356102C25.5642 0.0184746 25.3333 0.0700531 25.1485 0.139654C25.0495 0.176941 24.8534 0.273262 24.7707 0.325462C24.3742 0.575901 24.0879 0.920176 23.9192 1.34834C23.8178 1.60624 23.7699 1.84549 23.7562 2.15683C23.7481 2.34636 23.7481 9.77312 23.7562 9.9844C23.7686 10.31 23.8116 10.5536 23.9006 10.8122C24.114 11.4299 24.5572 11.8717 25.1783 12.0855C25.3868 12.1576 25.6109 12.2011 25.8536 12.2166C25.9165 12.2203 28.2498 12.2228 32.5587 12.2228H39.1666V13.7577V15.2927L32.4622 15.2946C26.0522 15.2958 25.7534 15.2964 25.67 15.307C25.3128 15.353 25.0215 15.4512 24.7427 15.6202C24.1925 15.9533 23.8184 16.4964 23.7002 17.1352C23.6721 17.2881 23.6659 17.3639 23.6665 17.564C23.6665 17.7281 23.669 17.7716 23.6809 17.8561C23.7475 18.3352 23.9329 18.7497 24.2423 19.1114C24.3487 19.2363 24.518 19.3873 24.6555 19.4805C24.9144 19.6558 25.1578 19.7521 25.4771 19.8062L25.558 19.8198L33.5619 19.8217C39.3508 19.8229 41.5945 19.8217 41.6686 19.8167C42.4976 19.7614 43.0951 19.4221 43.4517 18.8038C43.6273 18.4999 43.7312 18.1637 43.7797 17.7411C43.7866 17.6821 43.7878 16.287 43.7878 9.85514C43.7878 2.36625 43.7872 2.03689 43.7766 1.95051C43.7212 1.5037 43.575 1.13768 43.3285 0.829445C43.2333 0.710752 43.0572 0.543587 42.9289 0.451614C42.586 0.204905 42.1503 0.0495472 41.6866 0.00853157C41.5902 0.000453949 40.7288 -0.000789642 33.6802 0.000453949C29.3365 0.00107384 25.7696 0.00231743 25.754 0.00356102ZM39.1666 6.24462V7.87277H33.7736H28.3805V6.24462V4.61646H33.7736H39.1666V6.24462Z" fill="#737375"/>
<path d="M3.0449 7.33267C2.45923 7.35629 1.90219 7.56012 1.46154 7.90998C1.06757 8.22256 0.773797 8.63768 0.610108 9.11121C0.439573 9.60525 0.409076 10.1434 0.522973 10.6462C0.688529 11.3776 1.16839 12.0276 1.82004 12.4029C2.13746 12.5863 2.47604 12.6987 2.85258 12.746C2.99822 12.7646 3.3368 12.7659 3.48805 12.7491C3.92372 12.7 4.31645 12.5651 4.66437 12.3452C5.21332 11.9984 5.61227 11.4627 5.79152 10.8307C5.99815 10.1018 5.90479 9.29826 5.54007 8.66192C5.18468 8.04297 4.60088 7.60113 3.89758 7.41905C3.71771 7.37244 3.51481 7.34137 3.34801 7.33516C3.2951 7.33329 3.23224 7.33081 3.20797 7.32956C3.18432 7.32832 3.11025 7.32956 3.0449 7.33267Z" fill="#737375"/>
<path d="M10.8386 7.33268C10.3892 7.35132 9.96166 7.47312 9.58449 7.68938C9.08471 7.97586 8.70007 8.409 8.47041 8.94467C8.38639 9.1398 8.31294 9.40267 8.2812 9.62514C8.25506 9.80598 8.2451 10.0701 8.25817 10.2404C8.30983 10.9115 8.59738 11.5249 9.0816 11.9965C9.40337 12.3091 9.78614 12.5335 10.205 12.6546C10.3681 12.7019 10.4888 12.7261 10.6737 12.7491C10.8 12.7646 11.1517 12.7646 11.2867 12.7491C11.8743 12.6807 12.379 12.4607 12.8023 12.0885C13.0792 11.8449 13.3157 11.5193 13.4645 11.1769C13.6014 10.8618 13.6761 10.5312 13.6916 10.1751C13.7178 9.56735 13.5653 9.0006 13.2473 8.51899C13.0201 8.17472 12.717 7.89197 12.3572 7.68565C11.9987 7.48058 11.5494 7.3507 11.1436 7.33516C11.0957 7.3333 11.034 7.33081 11.0067 7.32957C10.9793 7.32895 10.904 7.33019 10.8386 7.33268Z" fill="#737375"/>
<path d="M18.6396 7.33265C18.2556 7.34819 17.889 7.4383 17.5541 7.59863C16.7245 7.99697 16.1749 8.77687 16.0666 9.70902C15.9845 10.4199 16.1699 11.1085 16.5975 11.6796C17.0083 12.2283 17.6207 12.6061 18.2904 12.7223C18.4728 12.7547 18.5468 12.7603 18.7771 12.7603C19.0342 12.7596 19.1599 12.7472 19.3809 12.7006C20.058 12.5577 20.6549 12.1562 21.0345 11.5889C21.4005 11.042 21.5518 10.3764 21.469 9.67981C21.4428 9.46044 21.3793 9.21125 21.2947 8.99747C21.2655 8.9229 21.1777 8.74082 21.1347 8.66625C20.8528 8.17159 20.4078 7.77449 19.8881 7.55388C19.5819 7.42401 19.2458 7.34633 18.939 7.33514C18.886 7.33328 18.8232 7.33079 18.7989 7.32955C18.7753 7.3283 18.7031 7.32955 18.6396 7.33265Z" fill="#737375"/>
<path d="M2.98416 14.5755C2.46695 14.6153 2.02755 14.7626 1.62735 15.0304C1.05288 15.4157 0.653305 16.0166 0.513267 16.707C0.41493 17.193 0.442937 17.7075 0.592311 18.1699C0.757867 18.6795 1.07155 19.1263 1.49042 19.4469C1.64104 19.5625 1.76116 19.6365 1.93854 19.7235C2.22982 19.8664 2.49558 19.9434 2.84724 19.9888C2.91757 19.9975 2.98043 20 3.1771 20C3.43104 20 3.48207 19.9963 3.66692 19.9652C4.21525 19.8738 4.72312 19.616 5.10901 19.2325C5.48804 18.8559 5.737 18.3899 5.84343 17.8561C6.01708 16.9904 5.78492 16.0924 5.22664 15.466C4.86378 15.0602 4.39823 14.7818 3.85862 14.6501C3.63518 14.5954 3.48332 14.578 3.21756 14.5755C3.10615 14.5743 3.00159 14.5743 2.98416 14.5755Z" fill="#737375"/>
<path d="M10.7763 14.5755C10.4744 14.5985 10.1937 14.6613 9.91925 14.7682C9.82962 14.803 9.62174 14.9067 9.52714 14.9645C9.19665 15.1646 8.91844 15.4318 8.70247 15.7556C8.46534 16.1111 8.32032 16.5162 8.2668 16.9736C8.25124 17.106 8.25124 17.4683 8.2668 17.6013C8.30601 17.9368 8.38816 18.2246 8.52384 18.5048C8.5892 18.6391 8.62405 18.7012 8.69936 18.8149C8.89666 19.1138 9.13752 19.3556 9.43503 19.5526C9.79726 19.7924 10.1813 19.931 10.6456 19.9888C10.7153 19.9975 10.7819 20 10.9754 20C11.2462 20 11.3259 19.9932 11.5418 19.9503C12.2395 19.8123 12.8457 19.4134 13.2329 18.8379C13.5154 18.4166 13.6679 17.9449 13.6916 17.4179C13.7239 16.6809 13.4887 15.9936 13.0225 15.4666C12.5918 14.9794 11.9931 14.6712 11.319 14.5898C11.2356 14.5799 11.1671 14.5767 11.0097 14.5749C10.8983 14.5743 10.7937 14.5743 10.7763 14.5755Z" fill="#737375"/>
<path d="M18.5685 14.5761C18.3457 14.591 18.0992 14.6389 17.8808 14.7091C16.9391 15.0136 16.2563 15.8091 16.0883 16.7959C16.0366 17.0991 16.0348 17.4397 16.0827 17.7442C16.2103 18.5552 16.6833 19.2474 17.3829 19.647C17.6916 19.8235 18.0308 19.9347 18.416 19.9857C18.5138 19.9981 18.5499 20 18.7677 20C19.0278 20 19.082 19.9956 19.278 19.9621C20.0044 19.8366 20.6448 19.4208 21.0438 18.8162C21.3388 18.3687 21.4907 17.8492 21.4907 17.2874C21.4907 16.3758 21.0849 15.5729 20.366 15.0621C20.2608 14.9869 20.145 14.9192 20.0062 14.8514C19.8251 14.7626 19.6832 14.7104 19.4946 14.6619C19.2482 14.5985 19.0839 14.5774 18.8081 14.5749C18.6967 14.5743 18.5891 14.5743 18.5685 14.5761Z" fill="#737375"/>
</g>
<defs>
<clipPath id="clip0_5098_9921">
<rect width="43.3333" height="20" fill="white" transform="translate(0.45459)"/>
</clipPath>
</defs>
</svg>
